<svg xmlns="http://www.w3.org/2000/svg" viewBox="0 0 1647.88 180.08"><defs><style>.cls-1{fill:#fff;}</style></defs><title>Element 2</title><g id="Ebene_2" data-name="Ebene 2"><g id="Ebene_1-2" data-name="Ebene 1"><path class="cls-1" d="M94.08,160.9Q87,178.17,70.77,178.17q-16,0-23.1-17.28L2.08,47.46A28.85,28.85,0,0,1,0,36.63,21.94,21.94,0,0,1,7.7,19.57a24.86,24.86,0,0,1,16.65-6.24q16,0,21.86,15.19L70.77,92.63,95.54,28.52q5.82-15.19,21.65-15.19A25.14,25.14,0,0,1,134,19.57a22.22,22.22,0,0,1,7.49,17.07,31.7,31.7,0,0,1-1.87,10.82Zm-4-1.67L135.71,45.79a25.53,25.53,0,0,0,1.67-9.16,17.65,17.65,0,0,0-6-13.74,20.53,20.53,0,0,0-14.15-5.41q-12.91,0-17.9,12.7L72.85,99.29A2.17,2.17,0,0,1,70.77,101q-1.25,0-1.87-1.67L42.46,30.18q-5-12.69-18.11-12.7a20,20,0,0,0-13.74,5.2A17.76,17.76,0,0,0,4.16,36.63,23,23,0,0,0,6,45.79L51.62,159.23Q57.45,174,70.77,174,84.3,174,90.13,159.23Zm43.09-122.6a13.76,13.76,0,0,0-4.79-10.72,16.37,16.37,0,0,0-11.24-4.27q-9.16,0-14.15,10.2L70.77,115.94,38.51,31.85q-4.79-10.2-14.15-10.2a16.48,16.48,0,0,0-11.14,4.27A13.63,13.63,0,0,0,8.33,36.63a21.06,21.06,0,0,0,1.46,7.7L55.37,157.78q5,12.07,15.4,12.07,10.62,0,15.4-12.07L131.76,44.34A21.12,21.12,0,0,0,133.21,36.63Z"/><path class="cls-1" d="M237.29,154.86q0,10.41-7.18,16.86t-17.8,6.45h-36q-23.94,0-38-15.51t-14-42.15q0-26.64,14-42.15t38-15.51h9.57q24.35,0,40.17,12.91,16.24,13.53,16.24,35.39,0,21.65-21.44,21.65Q237.28,137.79,237.29,154.86Zm-69.1-26.23h52.66q17.27,0,17.28-17.48,0-20-14.67-32.05T185.88,67H176.3q-22.07,0-35,14.26t-12.9,39.24q0,25,12.9,39.24t35,14.26h36a21.5,21.5,0,0,0,14.88-5.31,19.12,19.12,0,0,0,0-27.68,21.49,21.49,0,0,0-14.88-5.31H176.93a15.16,15.16,0,0,1-7.91-1.87q-3.12-1.87-3.12-3.75Q165.89,128.64,168.18,128.64ZM234,111.15q0-37-52.25-40H176.3q-20.19,0-32,12.91t-11.76,36.43q0,23.52,11.76,36.43t32,12.91h36q7.49,0,12.07-4.16a15.08,15.08,0,0,0,0-21.65q-4.58-4.16-12.07-4.16H176.93a18.58,18.58,0,0,1-12.7-4.37,18.85,18.85,0,0,1-6.24-11h62.86Q234,124.47,234,111.15Zm-39.13,3.33a9.36,9.36,0,0,1-6,.83l-2.91-.42q-7.91-1.45-12.7,2.29a20.86,20.86,0,0,0,.21-2.91,17.39,17.39,0,0,0-3.33-9.58l-1.67-2.5a10.24,10.24,0,0,1-1.67-5.83,13,13,0,0,1,3.33-8.53,9.86,9.86,0,0,1,7.7-4,8.73,8.73,0,0,1,4.58,1.25,9,9,0,0,1,4,7.91,17.74,17.74,0,0,1-.83,5.2q4-4,8.53-4a7.89,7.89,0,0,1,5.93,2.5,8.42,8.42,0,0,1,2.39,6Q202.32,110.94,194.83,114.48Z"/><path class="cls-1" d="M294.32,112h-5.41V153.2a26.48,26.48,0,0,1-6.66,17.8,21.36,21.36,0,0,1-16.65,7.18q-10.41,0-16.86-7.18t-6.45-17.8V71.6q0-11,7.7-17.48a24,24,0,0,1,16-5.83q20.19,0,22.48,17.07h6.24q19.56,0,31,11t11.45,28.72q0,10.83-3.75,18.32-5.62,10.83-18.11,10.82Q295.15,134.26,294.32,112Zm.42-42.46h-8.12q-1.87,0-2.08-2.08-.83-15-18.52-15a19.88,19.88,0,0,0-13.32,4.79q-6.24,5.41-6.24,14.36V153.2q0,9,5.31,14.88A17.7,17.7,0,0,0,265.59,174a17.47,17.47,0,0,0,13.63-5.93,22.31,22.31,0,0,0,5.52-14.88L285,109.9a1.84,1.84,0,0,1,2.08-2.08h4.58q4.37,0,5.62.94t1.25,4.89q0,16.45,16.86,16.44,17.69,0,17.69-25,0-16-10.2-25.81T294.73,69.52Zm34.14,35.59q0-14.15-9-22.79t-25.29-8.64h-14V69.11q0-12.49-14.57-12.49a16,16,0,0,0-10.82,4q-4.58,4-4.58,11V153.2q0,7.49,4.13,12.07a13.8,13.8,0,0,0,10.75,4.58A13.57,13.57,0,0,0,276,165.27q4.13-4.58,4.34-12.07l.21-49.54h10.87q7.52,0,9.83,3.12,1.25,1.87,1.26,6.87,0,12.28,12.75,12.28Q328.87,125.93,328.87,105.11Z"/><path class="cls-1" d="M337.61,146.74a20.56,20.56,0,0,1,3.12-10.2,20.66,20.66,0,0,1,9.16-9.37q-8.54-7.7-8.53-21.44,0-19.36,14.36-31.64,13.74-11.65,34.55-11.66a60.26,60.26,0,0,1,29.56,7.7q16.24,8.74,16.24,22.27a21.38,21.38,0,0,1-9,18.11q11.66,7.08,11.66,24.15,0,19.15-14.47,31.33t-36.53,12.18q-16.24,0-32.47-9Q337.61,159.44,337.61,146.74Zm4.16,0q0,10,15.61,18.94,15,8.32,30.39,8.33,20.61,0,33.72-11a35.32,35.32,0,0,0,13.11-28.31q0-16.44-12.7-22.27c-1.11-.42-1.67-.9-1.67-1.46q0-.2,5.83-5.62a17,17,0,0,0,5.83-12.91q0-11-13.95-18.73a56.72,56.72,0,0,0-27.68-7.08q-19.36,0-32.05,10.82t-12.7,28.31q0,13.74,9.78,20.4a2.26,2.26,0,0,1,1,1.67q0,1-3.75,3.33a28,28,0,0,0-6.87,5.41A14.73,14.73,0,0,0,341.77,146.74Zm88.67-12.07q0-14.78-13.32-19.57-5.62-2.08-25.19-3.54-13.53-1-13.53-6.24,0-8.32,10.2-8.33,5.41,0,15,4.37t11.86,4.37a11.27,11.27,0,0,0,8.74-4,13.58,13.58,0,0,0,3.54-9.37q0-10-13.11-16.24a54.56,54.56,0,0,0-24.35-5.41q-17.69,0-29.14,9.78t-11.45,25.19q0,15,13.53,19.77,5.82,2.29,25.19,3.54,13.32.83,13.32,6,0,12.7-11.86,12.7-7.29,0-16.34-7.18t-14.67-7.18q-5.62,0-9.57,5a13.33,13.33,0,0,0-3.33,8.33q0,9.58,14.78,16.65a60.59,60.59,0,0,0,27.06,6.45q19.15,0,30.91-10A31.66,31.66,0,0,0,430.44,134.67Zm-56,1.46a2.55,2.55,0,0,1-1-2.08q0-1.87,2.5-1.67,5.82.21,17.07,1.25a1.6,1.6,0,0,0,.62-.21L394,133a2.65,2.65,0,0,1,2.5,0,2.24,2.24,0,0,1,1,2.08q0,8.54-7.7,8.53Q384,143.62,374.45,136.13Zm14.15-35q4.37,0,10.82,2.91a2.17,2.17,0,0,1,1.67,2.08q0,2.08-2.71,1.87-3.75-.2-11.24-1a17.31,17.31,0,0,1-2.91.83q-1.67,0-1.67-2.5Q382.57,101.16,388.61,101.16Zm4.58,36.63q-2.08,0-5.41-.21a43.12,43.12,0,0,0-5.2-.62,13.87,13.87,0,0,0,7.29,2.5Q392.35,139.46,393.19,137.79Z"/><path class="cls-1" d="M490.81,178.17q-23.94,0-38-15.51t-14-42.15q0-26.64,14-42.15t38-15.51h36q10.62,0,17.8,6.45t7.18,16.86q0,10.41-7.18,16.86t-17.8,6.45H491.43q-11,0-11,11t11,11h35.39q10.62,0,17.8,6.45t7.18,16.86q0,10.41-7.18,16.86t-17.8,6.45Zm0-4.16h36a21.5,21.5,0,0,0,14.88-5.31,19.12,19.12,0,0,0,0-27.68,21.49,21.49,0,0,0-14.88-5.31H491.43q-7.08,0-11.14-4.37a16.46,16.46,0,0,1,0-21.65q4.06-4.37,11.14-4.37h35.39A21.49,21.49,0,0,0,541.7,100a17.69,17.69,0,0,0,5.93-13.84,17.7,17.7,0,0,0-5.93-13.84A21.5,21.5,0,0,0,526.82,67h-36q-22.07,0-35,14.26t-12.9,39.24q0,25,12.9,39.24T490.81,174Zm52.66-19.15A14,14,0,0,0,538.89,144q-4.58-4.16-12.07-4.16H491.43q-9,0-14.36-6a18.9,18.9,0,0,1-5-13.32,19.58,19.58,0,0,1,5.2-13.63q5.2-5.72,14.15-5.72h35.39q7.49,0,12.07-4.16a14,14,0,0,0,4.58-10.82,14,14,0,0,0-4.58-10.82q-4.58-4.16-12.07-4.16h-36q-20.19,0-32,12.91t-11.76,36.43q0,23.52,11.76,36.43t32,12.91h36q7.49,0,12.07-4.16A14,14,0,0,0,543.47,154.86Z"/><path class="cls-1" d="M617.57,80.34q21.23,0,35,12.91,14.36,13.53,14.36,35.8V153.2a25.41,25.41,0,0,1-6.56,17.8,21.68,21.68,0,0,1-16.76,7.18q-10.41,0-16.86-7.18t-6.45-17.8V134.26Q620.27,122,609,122q-10.83,0-10.82,12.28V153.2a25.41,25.41,0,0,1-6.56,17.8,21.68,21.68,0,0,1-16.76,7.18q-10.41,0-16.86-7.18t-6.45-17.8V25q0-10.62,6.45-17.8T574.9,0a21.68,21.68,0,0,1,16.76,7.18A25.41,25.41,0,0,1,598.21,25v58.7A51.9,51.9,0,0,1,617.57,80.34Zm0,4.16q-12.49,0-20.61,4Q594,90.13,594,86.8V24.93a21.16,21.16,0,0,0-5.41-14.84,19,19,0,0,0-27.58,0A21.49,21.49,0,0,0,555.75,25V153.2q0,9,5.31,14.88a19,19,0,0,0,27.58,0A21.24,21.24,0,0,0,594,153.2V134.26q0-16.44,15-16.44,15.4,0,15.4,16.44V153.2a21.49,21.49,0,0,0,5.31,14.88,19,19,0,0,0,27.58,0,21.24,21.24,0,0,0,5.41-14.88V129.05q0-20.4-12.8-32.47T617.57,84.51Zm41,68.65V128.95q0-18.78-11.62-29.63T617.32,88.46q-19.06,0-27.43,10.62V25q0-7.49-4.27-12.07a15,15,0,0,0-21.54,0q-4.17,4.58-4.16,12.07V153.2q0,7.49,4.16,12.07a15,15,0,0,0,21.54,0q4.26-4.58,4.27-12.07V134.26q0-8.95,5.1-14.78t14-5.83q8.53,0,13.74,5,5.82,5.62,5.83,15.61V153.2q0,7.49,4.16,12.07a14.95,14.95,0,0,0,21.54,0Q658.57,160.67,658.57,153.15Z"/><path class="cls-1" d="M779.92,154.86q0,10.41-7.18,16.86t-17.8,6.45h-36q-23.94,0-38-15.51t-14-42.15q0-26.64,14-42.15t38-15.51h9.57q24.35,0,40.17,12.91,16.24,13.53,16.24,35.39,0,21.65-21.44,21.65Q779.91,137.79,779.92,154.86Zm-69.1-26.23h52.66q17.27,0,17.28-17.48,0-20-14.67-32.05T728.51,67h-9.57q-22.07,0-35,14.26t-12.9,39.24q0,25,12.9,39.24t35,14.26h36a21.5,21.5,0,0,0,14.88-5.31,19.12,19.12,0,0,0,0-27.68,21.49,21.49,0,0,0-14.88-5.31H719.56a15.16,15.16,0,0,1-7.91-1.87q-3.12-1.87-3.12-3.75Q708.52,128.64,710.81,128.64Zm65.77-17.48q0-37-52.25-40h-5.41q-20.19,0-32,12.91t-11.76,36.43q0,23.52,11.76,36.43t32,12.91h36q7.49,0,12.07-4.16A15.08,15.08,0,0,0,767,144q-4.58-4.16-12.07-4.16H719.56a18.58,18.58,0,0,1-12.7-4.37,18.85,18.85,0,0,1-6.24-11h62.86Q776.59,124.47,776.59,111.15Zm-39.13,3.33a9.36,9.36,0,0,1-6,.83l-2.91-.42q-7.91-1.45-12.7,2.29a20.86,20.86,0,0,0,.21-2.91,17.39,17.39,0,0,0-3.33-9.58L711,102.2a10.24,10.24,0,0,1-1.67-5.83,13,13,0,0,1,3.33-8.53,9.86,9.86,0,0,1,7.7-4A8.73,8.73,0,0,1,725,85.13a9,9,0,0,1,4,7.91,17.74,17.74,0,0,1-.83,5.2q4-4,8.53-4a7.89,7.89,0,0,1,5.93,2.5,8.42,8.42,0,0,1,2.39,6Q744.95,110.94,737.46,114.48Z"/><path class="cls-1" d="M850.89,57.45q21.23,0,35,12.91,14.36,13.53,14.36,35.8v47a25.41,25.41,0,0,1-6.56,17.8,21.68,21.68,0,0,1-16.76,7.18q-10.41,0-16.86-7.18t-6.45-17.8V111.36q0-12.28-11.24-12.28-10.83,0-10.82,12.28V153.2A25.41,25.41,0,0,1,825,171a21.68,21.68,0,0,1-16.76,7.18q-10.41,0-16.86-7.18t-6.45-17.8V73.27q0-10.62,6.45-17.8t16.86-7.18q15.61,0,20.61,13.32Q838,57.45,850.89,57.45Zm0,4.16q-13.53,0-22.27,4.79-2.29,1.46-2.91-1.25-3.54-12.69-17.48-12.7a17.7,17.7,0,0,0-13.84,5.93,21.49,21.49,0,0,0-5.31,14.88V153.2q0,9,5.31,14.88a19,19,0,0,0,27.58,0,21.24,21.24,0,0,0,5.41-14.88V111.36q0-16.44,15-16.44,15.4,0,15.4,16.44V153.2q0,9,5.31,14.88a19,19,0,0,0,27.58,0,21.25,21.25,0,0,0,5.41-14.88v-47q0-20.4-12.8-32.47T850.89,61.61Zm41,91.58v-47q0-18.73-11.55-29.56T850.89,65.77q-20.19,0-28.93,12.28V67.65q-1.67-11-13.74-11A14,14,0,0,0,797.4,61.2q-4.17,4.58-4.16,12.07V153.2q0,7.49,4.16,12.07a15,15,0,0,0,21.54,0q4.26-4.58,4.27-12.07V111.36q0-8.95,5.1-14.78t14-5.83q8.53,0,13.74,5,5.82,5.62,5.83,15.61V153.2q0,7.49,4.16,12.07a15,15,0,0,0,21.54,0Q891.9,160.69,891.9,153.2Z"/><path class="cls-1" d="M976.61,121.14l20.61,18.32q8.74,7.7,8.74,18.11a21.86,21.86,0,0,1-5.62,14.78,19.75,19.75,0,0,1-15.4,7.08q-9.16,0-21-9.78-5.83-4.79-17.07-16.86v.42a25.41,25.41,0,0,1-6.56,17.8,21.68,21.68,0,0,1-16.76,7.18q-10.41,0-16.86-7.18t-6.45-17.8V25q0-10.62,6.45-17.8T923.53,0a21.37,21.37,0,0,1,16.65,7.18A26.48,26.48,0,0,1,946.85,25l.21,62.65,22.06-27.06q9.78-12.28,20.82-12.28a22.39,22.39,0,0,1,22.48,22.48,22.69,22.69,0,0,1-5.83,15.4Zm-4.37-1,31.22-36.63a19.06,19.06,0,0,0,4.79-12.7,17.53,17.53,0,0,0-5.41-13,17.8,17.8,0,0,0-12.91-5.31q-9,0-17.69,10.62l-25.6,31.64a2.38,2.38,0,0,1-1.87,1c-1.25,0-1.87-.76-1.87-2.29L942.68,25a22.32,22.32,0,0,0-5.52-14.88,17.47,17.47,0,0,0-13.63-5.93,17.7,17.7,0,0,0-13.84,5.93A21.5,21.5,0,0,0,904.38,25V153.2a21.49,21.49,0,0,0,5.31,14.88,19,19,0,0,0,27.58,0,21.24,21.24,0,0,0,5.41-14.88v-5.62a2.44,2.44,0,0,1,1-2.29,2.38,2.38,0,0,1,2.5.83L963.71,164q12.49,11.24,21.23,11.24A15.32,15.32,0,0,0,997,169.74a18.15,18.15,0,0,0,4.79-12.18q0-8.53-7.29-15L972.45,123A1.92,1.92,0,0,1,972.24,120.1Zm31.85-49.33a13.5,13.5,0,0,0-4.19-10.1,14,14,0,0,0-10.06-4.06q-7.12,0-14.45,9.16l-36.87,45.17V25q-.21-7.49-4.37-12.07a13.72,13.72,0,0,0-10.62-4.58,14,14,0,0,0-10.82,4.58q-4.17,4.58-4.16,12.07V153.2q0,7.49,4.16,12.07a15,15,0,0,0,21.54,0q4.26-4.58,4.27-12.07V132.8l32.89,31.85q6.66,6.45,13.53,6.45a11.54,11.54,0,0,0,9.05-4.16,13.86,13.86,0,0,0,3.64-9.37q0-6.66-5.83-11.87L965.16,122l35.18-41.21A14.92,14.92,0,0,0,1004.09,70.77Z"/><path class="cls-1" d="M1074.44,108.24v24.35a4.87,4.87,0,0,0,.31,2.29c.21.28.66.42,1.35.42q20.61,0,20.61,21,0,12.49-11,18.11-7.29,3.75-18.11,3.75-17.69,0-28.72-11.45t-11-31V108.24q-9-.83-14.36-6.66T1008,86.8a21.23,21.23,0,0,1,19.36-21.44q0-2.29-.42-10.09t-.42-12.59q0-40,24.56-40a21.68,21.68,0,0,1,16.76,7.18,25.41,25.41,0,0,1,6.56,17.8V65.36h.21a24.24,24.24,0,0,1,15.19,4.79q7.49,5.62,7.49,16.65,0,10.83-7.49,16.65a24.22,24.22,0,0,1-15.19,4.79Zm-2.08-4.16h2.29a20.64,20.64,0,0,0,13-4.27q5.51-4.26,5.52-13t-6-13.32q-4.79-4-12.49-4h-2.29a1.84,1.84,0,0,1-2.08-2.08V27.68a21.25,21.25,0,0,0-5.41-14.88,19,19,0,0,0-27.58,0A21.49,21.49,0,0,0,1032,27.68l-.42,39.76q-.21,2.08-2.08,2.08a16.6,16.6,0,0,0-12.38,5,16.87,16.87,0,0,0-4.89,12.28q0,7.7,4.89,12.49t12.8,4.79a1.84,1.84,0,0,1,2.08,2.08v29.56q0,17.9,9.78,28.1t25.81,10.2q25,0,25-17.69,0-16.86-16.44-16.86-5.83,0-5.83-6.87V106.16A1.84,1.84,0,0,1,1072.36,104.07ZM1089,86.8q0-13.11-14.36-13.11h-8.53v-46q0-7.49-4.27-12.07a15,15,0,0,0-21.54,0q-4.17,4.58-4.16,12.07v46h-6.66a12.8,12.8,0,0,0-13.11,13.11q0,13.11,13.11,13.11h6.66v35.8q0,16.23,8.64,25.19t22.79,9q20.81,0,20.81-13.53,0-12.69-12.28-12.7-5,0-6.87-1.46-3.12-2.29-3.12-9.58V99.91h8.53Q1089,99.91,1089,86.8Z"/><path class="cls-1" d="M1176.64,178.17q-11.24,0-17.9-7.18t-6.66-18.21V37.88q0-11,6.87-17.8A23.36,23.36,0,0,1,1176,13.32q10.41,0,17.17,6.76t6.76,17.8V132.8h10q11,0,17.48,7.08a22.19,22.19,0,0,1,5.62,15.4,22.47,22.47,0,0,1-5.83,15.61q-6.45,7.28-17.28,7.29Zm0-4.16h33.3q8.95,0,14.36-5.83a18.83,18.83,0,0,0,4.79-12.91,18.38,18.38,0,0,0-5-12.91q-5-5.41-14.15-5.41h-12.07a1.84,1.84,0,0,1-2.08-2.08v-97q0-9.37-5.52-14.88T1176,17.48A19.38,19.38,0,0,0,1161.86,23q-5.62,5.52-5.62,14.88v114.9q0,9.58,5.52,15.4T1176.64,174Zm48.29-17.9a14.86,14.86,0,0,0-3.33-10.2q-4.17-4.79-11.66-4.79h-18.32V37.88q0-7.7-4.37-12a16.94,16.94,0,0,0-22.48,0q-4.37,4.27-4.37,12v114.9q0,7.91,4.37,12.49t11.86,4.58h33.3a14.29,14.29,0,0,0,10.72-4.16A14.14,14.14,0,0,0,1224.93,156.11Z"/><path class="cls-1" d="M1234.08,153.2V102.41a27.46,27.46,0,0,1,2.5-11.24,18.15,18.15,0,0,1-8-8.53,26.76,26.76,0,0,1-3-12.07,22.94,22.94,0,0,1,5-14.78,17.76,17.76,0,0,1,14.57-7.08,19,19,0,0,1,12.28,4.37,16.47,16.47,0,0,1,11.86-4.37A18.16,18.16,0,0,1,1284,55.58a23.24,23.24,0,0,1,5,15q0,13.32-11.24,20.19a25.89,25.89,0,0,1,2.91,11.66V153.2a25.41,25.41,0,0,1-6.56,17.8,21.68,21.68,0,0,1-16.76,7.18q-10.41,0-16.86-7.18T1234.08,153.2Zm4.16,0q0,9,5.31,14.88a19,19,0,0,0,27.58,0,21.24,21.24,0,0,0,5.41-14.88V102.41a21.32,21.32,0,0,0-3.7-11.45,1.9,1.9,0,0,1-.46-1q0-1.25,3.23-3.12a25.29,25.29,0,0,0,6-5.2,18.07,18.07,0,0,0,3.23-11,19.08,19.08,0,0,0-4.27-12.49,13.94,13.94,0,0,0-11.34-5.2,13.49,13.49,0,0,0-8,2.6q-3.64,2.6-4.06,2.6a1.8,1.8,0,0,1-1.25-.62,14.37,14.37,0,0,0-10.82-4.58,13.72,13.72,0,0,0-11.14,5.2,19.07,19.07,0,0,0-4.27,12.49A21.54,21.54,0,0,0,1232.42,81q3.12,5.62,7.7,7.29,2.29.83,1.25,2.91a23.79,23.79,0,0,0-3.12,11.24Zm42.46-82.63a14.57,14.57,0,0,0-3.23-9.68,10.26,10.26,0,0,0-8.22-3.85q-9,0-11.86,11.66h-.21Q1254.69,57,1245.12,57a10,10,0,0,0-8.12,3.85,14.87,14.87,0,0,0-3.12,9.68,15.36,15.36,0,0,0,2.39,8.64,13.24,13.24,0,0,0,5.72,5.1l3.54,1.46q9.16,4,11.86,11.24,2.5-7.28,11.66-11.24l3.33-1.46Q1280.71,80.76,1280.71,70.56Zm-8.33,82.63V102.41a17.36,17.36,0,0,0-3.33-10.82q-3.33,2.29-6.45,4.58-4.17,2.92-5.2,6.45a14,14,0,0,0-5.2-6.45l-6.66-4.58a18.15,18.15,0,0,0-3.12,10.82V153.2q0,7.49,4.16,12.07a15,15,0,0,0,21.54,0Q1272.38,160.69,1272.38,153.2Z"/><path class="cls-1" d="M1397.9,154.86q0,10.41-7.18,16.86t-17.8,6.45h-36q-23.94,0-38-15.51t-14-42.15q0-26.64,14-42.15t38-15.51h9.57q24.35,0,40.17,12.91,16.23,13.53,16.24,35.39,0,21.65-21.44,21.65Q1397.89,137.79,1397.9,154.86Zm-69.11-26.23h52.66q17.27,0,17.28-17.48,0-20-14.67-32.05T1346.48,67h-9.57q-22.06,0-35,14.26T1289,120.52q0,25,12.91,39.24t35,14.26h36a21.49,21.49,0,0,0,14.88-5.31,19.11,19.11,0,0,0,0-27.68,21.49,21.49,0,0,0-14.88-5.31h-35.39a15.16,15.16,0,0,1-7.91-1.87q-3.12-1.87-3.12-3.75C1326.5,129.12,1327.26,128.64,1328.79,128.64Zm65.77-17.48q0-37-52.24-40h-5.41q-20.19,0-32,12.91t-11.76,36.43q0,23.52,11.76,36.43t32,12.91h36q7.49,0,12.07-4.16a15.08,15.08,0,0,0,0-21.65q-4.58-4.16-12.07-4.16h-35.39a18.58,18.58,0,0,1-12.7-4.37,18.85,18.85,0,0,1-6.24-11h62.86Q1394.57,124.47,1394.57,111.15Zm-39.13,3.33a9.37,9.37,0,0,1-6,.83l-2.91-.42q-7.91-1.45-12.7,2.29a20.86,20.86,0,0,0,.21-2.91,17.39,17.39,0,0,0-3.33-9.58l-1.67-2.5a10.24,10.24,0,0,1-1.67-5.83,13,13,0,0,1,3.33-8.53,9.87,9.87,0,0,1,7.7-4,8.73,8.73,0,0,1,4.58,1.25,9,9,0,0,1,4,7.91,17.74,17.74,0,0,1-.83,5.2q4-4,8.53-4a7.89,7.89,0,0,1,5.93,2.5,8.42,8.42,0,0,1,2.39,6Q1362.93,110.94,1355.44,114.48Z"/><path class="cls-1" d="M1489.48,171.1q-5.42,2.08-21.65,9-1.67.62-23.1-9.78a22,22,0,0,1-18.53,9.16,21.68,21.68,0,0,1-16.76-7.18,25.41,25.41,0,0,1-6.56-17.8V26.23a25.41,25.41,0,0,1,6.56-17.8,21.68,21.68,0,0,1,16.76-7.18q10.41,0,16.86,7.18t6.45,17.8V62.65q2.7-.21,5.41-.21,4.16,0,12.07,3.33,7.91-3.33,12.07-3.33,24.35,0,38.72,18.53a54.06,54.06,0,0,1,12.07,34.55q0,29.35-32.05,50.16Q1496.14,168.18,1489.48,171.1Zm-1.46-4q5.41-2.29,6.45-4a2.33,2.33,0,0,1,.83-.83q30.39-19.36,30.39-46.83a50.19,50.19,0,0,0-11.24-32.05q-13.11-16.86-35.39-16.86a26.24,26.24,0,0,0-7.18,1.77q-5.1,1.77-5.72,1.56-8.12-3.33-11.24-3.33a38.38,38.38,0,0,0-7.08.62q-2.5.21-2.5-2.08V26.23q0-9.16-5.31-15a19.23,19.23,0,0,0-27.58,0q-5.42,5.83-5.41,15V154.45a21.23,21.23,0,0,0,5.41,14.88,17.78,17.78,0,0,0,13.74,5.93,17.34,17.34,0,0,0,12.49-4.79q5-4.79,5.41-4.79-.83,0,22.9,10.2Q1475.32,172.34,1488,167.14Zm33.51-51.62A46.93,46.93,0,0,0,1511.33,86q-12.07-15.19-32.26-15.19a16.77,16.77,0,0,0-6.24,1.46,51.87,51.87,0,0,1-5.83,2.29,46.71,46.71,0,0,1-5.62-2.29,19.73,19.73,0,0,0-6.45-1.46,44.55,44.55,0,0,0-13.74,2.08V26.23q0-7.49-4.16-12.07a15,15,0,0,0-21.54,0q-4.27,4.58-4.27,12.07V154.45a17.08,17.08,0,0,0,4.27,12,13.89,13.89,0,0,0,10.72,4.68q12.07,0,14.57-12.28,3.54,2.71,26.23,12.49,24.77-10.62,26-12.49l1.46-.83Q1521.53,140.71,1521.53,115.52Zm-29.14,0q0,10.2-8.12,13.74l-3.54,1.46q-9.16,4-11.66,11.24-2.71-7.28-11.87-11.24l-3.33-1.46a12.41,12.41,0,0,1-5.83-5.1,15.87,15.87,0,0,1-2.29-8.64,14.88,14.88,0,0,1,3.12-9.68A10,10,0,0,1,1457,102q9.37,0,12.07,11.66Q1472,102,1481.15,102a10,10,0,0,1,8.12,3.85A14.88,14.88,0,0,1,1492.39,115.52Z"/><path class="cls-1" d="M1642.88,154.86q0,10.41-7.18,16.86t-17.8,6.45h-36q-23.94,0-38-15.51t-14-42.15q0-26.64,14-42.15t38-15.51h9.57q24.35,0,40.17,12.91,16.23,13.53,16.24,35.39,0,21.65-21.44,21.65Q1642.88,137.79,1642.88,154.86Zm-69.11-26.23h52.66q17.27,0,17.28-17.48,0-20-14.67-32.05T1591.47,67h-9.57q-22.06,0-35,14.26T1534,120.52q0,25,12.91,39.24t35,14.26h36a21.49,21.49,0,0,0,14.88-5.31,19.11,19.11,0,0,0,0-27.68,21.49,21.49,0,0,0-14.88-5.31h-35.39a15.16,15.16,0,0,1-7.91-1.87q-3.12-1.87-3.12-3.75C1571.49,129.12,1572.25,128.64,1573.78,128.64Zm65.77-17.48q0-37-52.24-40h-5.41q-20.19,0-32,12.91t-11.76,36.43q0,23.52,11.76,36.43t32,12.91h36q7.49,0,12.07-4.16a15.08,15.08,0,0,0,0-21.65q-4.58-4.16-12.07-4.16h-35.39a18.58,18.58,0,0,1-12.7-4.37,18.85,18.85,0,0,1-6.24-11h62.86Q1639.55,124.47,1639.55,111.15Zm-39.13,3.33a9.37,9.37,0,0,1-6,.83l-2.91-.42q-7.91-1.45-12.7,2.29a20.86,20.86,0,0,0,.21-2.91,17.39,17.39,0,0,0-3.33-9.58l-1.67-2.5a10.24,10.24,0,0,1-1.67-5.83,13,13,0,0,1,3.33-8.53,9.87,9.87,0,0,1,7.7-4,8.73,8.73,0,0,1,4.58,1.25,9,9,0,0,1,4,7.91,17.74,17.74,0,0,1-.83,5.2q4-4,8.53-4a7.89,7.89,0,0,1,5.93,2.5,8.42,8.42,0,0,1,2.39,6Q1607.91,110.94,1600.42,114.48Z"/></g></g></svg>