<svg id="Ebene_1" data-name="Ebene 1" xmlns="http://www.w3.org/2000/svg" viewBox="0 0 1648.37 312.22"><defs><style>.cls-1,.cls-2{fill:#fff;}.cls-2{font-size:67.83px;font-family:HelveticaNeue, Helvetica Neue;}.cls-3{letter-spacing:-0.02em;}.cls-4{letter-spacing:0em;}</style></defs><title>liebe_logo</title><path class="cls-1" d="M198.21,577.68Q191.13,595,174.9,595q-16,0-23.1-17.28L106.21,464.24a28.85,28.85,0,0,1-2.08-10.82,21.94,21.94,0,0,1,7.7-17.07,24.86,24.86,0,0,1,16.65-6.24q16,0,21.86,15.19l24.56,64.11,24.77-64.11q5.82-15.19,21.65-15.19a25.14,25.14,0,0,1,16.86,6.24,22.22,22.22,0,0,1,7.49,17.07,31.7,31.7,0,0,1-1.87,10.82Zm-4-1.67,45.58-113.44a25.53,25.53,0,0,0,1.67-9.16,17.65,17.65,0,0,0-6-13.74,20.53,20.53,0,0,0-14.15-5.41q-12.91,0-17.9,12.7L177,516.07a2.17,2.17,0,0,1-2.08,1.67q-1.25,0-1.87-1.67L146.59,447q-5-12.69-18.11-12.7a20,20,0,0,0-13.74,5.2,17.76,17.76,0,0,0-6.45,13.95,23,23,0,0,0,1.87,9.16L155.75,576q5.82,14.78,19.15,14.78Q188.42,590.79,194.25,576Zm43.09-122.6a13.76,13.76,0,0,0-4.79-10.72,16.37,16.37,0,0,0-11.24-4.27q-9.16,0-14.15,10.2L174.9,532.72l-32.26-84.09q-4.79-10.2-14.15-10.2a16.48,16.48,0,0,0-11.14,4.27,13.63,13.63,0,0,0-4.89,10.72,21.06,21.06,0,0,0,1.46,7.7l45.58,113.44q5,12.07,15.4,12.07,10.62,0,15.4-12.07l45.58-113.44A21.12,21.12,0,0,0,237.34,453.42Z" transform="translate(-103.64 -416.78)"/><path class="cls-1" d="M341.41,571.65q0,10.41-7.18,16.86T316.44,595h-36q-23.94,0-38-15.51t-14-42.15q0-26.64,14-42.15t38-15.51H290q24.35,0,40.17,12.91,16.24,13.53,16.24,35.39,0,21.65-21.44,21.65Q341.41,554.58,341.41,571.65Zm-69.1-26.23H325q17.27,0,17.28-17.48,0-20-14.67-32.05T290,483.81h-9.57q-22.07,0-35,14.26t-12.9,39.24q0,25,12.9,39.24t35,14.26h36a21.5,21.5,0,0,0,14.88-5.31,19.12,19.12,0,0,0,0-27.68,21.49,21.49,0,0,0-14.88-5.31H281.05a15.16,15.16,0,0,1-7.91-1.87q-3.12-1.87-3.12-3.75Q270,545.42,272.31,545.42Zm65.77-17.48q0-37-52.25-40h-5.41q-20.19,0-32,12.91T236.71,537.3q0,23.52,11.76,36.43t32,12.91h36q7.49,0,12.07-4.16a15.08,15.08,0,0,0,0-21.65q-4.58-4.16-12.07-4.16H281.05a18.58,18.58,0,0,1-12.7-4.37,18.85,18.85,0,0,1-6.24-11H325Q338.08,541.26,338.08,527.93ZM299,531.26a9.36,9.36,0,0,1-6,.83l-2.91-.42q-7.91-1.45-12.7,2.29a20.86,20.86,0,0,0,.21-2.91,17.39,17.39,0,0,0-3.33-9.58l-1.67-2.5a10.24,10.24,0,0,1-1.67-5.83,13,13,0,0,1,3.33-8.53,9.86,9.86,0,0,1,7.7-4,8.73,8.73,0,0,1,4.58,1.25,9,9,0,0,1,4,7.91,17.74,17.74,0,0,1-.83,5.2q4-4,8.53-4a7.89,7.89,0,0,1,5.93,2.5,8.42,8.42,0,0,1,2.39,6Q306.44,527.73,299,531.26Z" transform="translate(-103.64 -416.78)"/><path class="cls-1" d="M398.44,528.77H393V570a26.48,26.48,0,0,1-6.66,17.8A21.36,21.36,0,0,1,369.72,595q-10.41,0-16.86-7.18T346.41,570V488.39q0-11,7.7-17.48a24,24,0,0,1,16-5.83q20.19,0,22.48,17.07h6.24q19.56,0,31,11t11.45,28.72q0,10.83-3.75,18.32Q432,551,419.47,551,399.27,551,398.44,528.77Zm.42-42.46h-8.12q-1.87,0-2.08-2.08-.83-15-18.52-15A19.88,19.88,0,0,0,356.81,474q-6.24,5.41-6.24,14.36V570q0,9,5.31,14.88a17.7,17.7,0,0,0,13.84,5.93,17.47,17.47,0,0,0,13.63-5.93A22.31,22.31,0,0,0,388.87,570l.21-43.29a1.84,1.84,0,0,1,2.08-2.08h4.58q4.37,0,5.62.94t1.25,4.89q0,16.45,16.86,16.44,17.69,0,17.69-25,0-16-10.2-25.81T398.86,486.3ZM433,521.9q0-14.15-9-22.79t-25.29-8.64h-14v-4.58q0-12.49-14.57-12.49a16,16,0,0,0-10.82,4q-4.58,4-4.58,11V570q0,7.49,4.13,12.07a13.8,13.8,0,0,0,10.75,4.58,13.57,13.57,0,0,0,10.54-4.58q4.13-4.58,4.34-12.07l.21-49.54h10.87q7.52,0,9.83,3.12,1.25,1.87,1.26,6.87,0,12.28,12.75,12.28Q433,542.71,433,521.9Z" transform="translate(-103.64 -416.78)"/><path class="cls-1" d="M441.73,563.53A25.15,25.15,0,0,1,454,544q-8.54-7.7-8.53-21.44,0-19.36,14.36-31.64,13.74-11.65,34.55-11.66a60.26,60.26,0,0,1,29.56,7.7q16.24,8.74,16.24,22.27a21.38,21.38,0,0,1-9,18.11q11.66,7.08,11.66,24.15,0,19.15-14.47,31.33T491.9,595q-16.24,0-32.47-9Q441.73,576.23,441.73,563.53Zm4.16,0q0,10,15.61,18.94,15,8.32,30.39,8.33,20.61,0,33.72-11a35.32,35.32,0,0,0,13.11-28.31q0-16.44-12.7-22.27c-1.11-.42-1.67-.9-1.67-1.46q0-.2,5.83-5.62A17,17,0,0,0,536,509.2q0-11-13.95-18.73a56.72,56.72,0,0,0-27.68-7.08q-19.36,0-32.05,10.82t-12.7,28.31q0,13.74,9.78,20.4a2.26,2.26,0,0,1,1,1.67q0,1-3.75,3.33a28,28,0,0,0-6.87,5.41A14.73,14.73,0,0,0,445.9,563.53Zm88.67-12.07q0-14.78-13.32-19.57-5.62-2.08-25.19-3.54-13.53-1-13.53-6.24,0-8.32,10.2-8.33,5.41,0,15,4.37t11.86,4.37a11.27,11.27,0,0,0,8.74-4,13.58,13.58,0,0,0,3.54-9.37q0-10-13.11-16.24a54.56,54.56,0,0,0-24.35-5.41q-17.69,0-29.14,9.78t-11.45,25.19q0,15,13.53,19.77,5.82,2.29,25.19,3.54,13.32.83,13.32,6,0,12.7-11.86,12.7-7.29,0-16.34-7.18T463,550.21q-5.62,0-9.57,5a13.33,13.33,0,0,0-3.33,8.33q0,9.58,14.78,16.65a60.59,60.59,0,0,0,27.06,6.45q19.15,0,30.91-10A31.66,31.66,0,0,0,534.57,551.46Zm-56,1.46a2.55,2.55,0,0,1-1-2.08q0-1.87,2.5-1.67,5.82.21,17.07,1.25a1.6,1.6,0,0,0,.62-.21l.42-.42a2.65,2.65,0,0,1,2.5,0,2.24,2.24,0,0,1,1,2.08q0,8.54-7.7,8.53Q488.15,560.41,478.58,552.91Zm14.15-35q4.37,0,10.82,2.91a2.17,2.17,0,0,1,1.67,2.08q0,2.08-2.71,1.87-3.75-.2-11.24-1a17.31,17.31,0,0,1-2.91.83q-1.67,0-1.67-2.5Q486.69,517.94,492.73,517.94Zm4.58,36.63q-2.08,0-5.41-.21a43.12,43.12,0,0,0-5.2-.62,13.87,13.87,0,0,0,7.29,2.5Q496.48,556.24,497.31,554.58Z" transform="translate(-103.64 -416.78)"/><path class="cls-1" d="M594.93,595q-23.94,0-38-15.51t-14-42.15q0-26.64,14-42.15t38-15.51h36q10.62,0,17.8,6.45T655.92,503q0,10.41-7.18,16.86t-17.8,6.45H595.56q-11,0-11,11t11,11h35.39q10.62,0,17.8,6.45t7.18,16.86q0,10.41-7.18,16.86T630.94,595Zm0-4.16h36a21.5,21.5,0,0,0,14.88-5.31,19.12,19.12,0,0,0,0-27.68,21.49,21.49,0,0,0-14.88-5.31H595.56q-7.08,0-11.14-4.37a16.46,16.46,0,0,1,0-21.65q4.06-4.37,11.14-4.37h35.39a21.49,21.49,0,0,0,14.88-5.31,19.12,19.12,0,0,0,0-27.68,21.5,21.5,0,0,0-14.88-5.31h-36q-22.07,0-35,14.26t-12.9,39.24q0,25,12.9,39.24T594.93,590.79Zm52.66-19.15A14,14,0,0,0,643,560.82q-4.58-4.16-12.07-4.16H595.56q-9,0-14.36-6a18.9,18.9,0,0,1-5-13.32,19.58,19.58,0,0,1,5.2-13.63q5.2-5.72,14.15-5.72h35.39q7.49,0,12.07-4.16a15.08,15.08,0,0,0,0-21.65Q638.43,488,630.94,488h-36q-20.19,0-32,12.91T551.22,537.3q0,23.52,11.76,36.43t32,12.91h36q7.49,0,12.07-4.16A14,14,0,0,0,647.59,571.65Z" transform="translate(-103.64 -416.78)"/><path class="cls-1" d="M721.69,497.13q21.23,0,35,12.91Q771,523.57,771,545.83V570a25.41,25.41,0,0,1-6.56,17.8A21.68,21.68,0,0,1,747.71,595q-10.41,0-16.86-7.18T724.4,570V551q0-12.28-11.24-12.28-10.83,0-10.82,12.28V570a25.41,25.41,0,0,1-6.56,17.8A21.68,21.68,0,0,1,679,595q-10.41,0-16.86-7.18T655.71,570V441.76q0-10.62,6.45-17.8T679,416.78A21.68,21.68,0,0,1,695.78,424a25.41,25.41,0,0,1,6.56,17.8v58.7A51.9,51.9,0,0,1,721.69,497.13Zm0,4.16q-12.49,0-20.61,4-2.92,1.67-2.91-1.66V441.71a21.16,21.16,0,0,0-5.41-14.84,19,19,0,0,0-27.58,0,21.49,21.49,0,0,0-5.31,14.88V570q0,9,5.31,14.88a19,19,0,0,0,27.58,0A21.24,21.24,0,0,0,698.17,570V551q0-16.44,15-16.44,15.4,0,15.4,16.44V570a21.49,21.49,0,0,0,5.31,14.88,19,19,0,0,0,27.58,0A21.24,21.24,0,0,0,766.86,570V545.83q0-20.4-12.8-32.47T721.69,501.29Zm41,68.65V545.73q0-18.78-11.62-29.63t-29.63-10.85q-19.06,0-27.43,10.62v-74.1q0-7.49-4.27-12.07a15,15,0,0,0-21.54,0Q664,434.27,664,441.76V570q0,7.49,4.16,12.07a15,15,0,0,0,21.54,0Q694,577.48,694,570V551q0-8.95,5.1-14.78t14-5.83q8.53,0,13.74,5,5.82,5.62,5.83,15.61V570q0,7.49,4.16,12.07a14.95,14.95,0,0,0,21.54,0Q762.69,577.45,762.7,569.94Z" transform="translate(-103.64 -416.78)"/><path class="cls-1" d="M884,571.65q0,10.41-7.18,16.86T859.07,595h-36q-23.94,0-38-15.51T771,537.3q0-26.64,14-42.15t38-15.51h9.57q24.35,0,40.17,12.91Q889,506.08,889,527.93q0,21.65-21.44,21.65Q884,554.58,884,571.65Zm-69.1-26.23H867.6q17.27,0,17.28-17.48,0-20-14.67-32.05t-37.57-12.07h-9.57q-22.07,0-35,14.26t-12.9,39.24q0,25,12.9,39.24t35,14.26h36a21.5,21.5,0,0,0,14.88-5.31,19.12,19.12,0,0,0,0-27.68,21.49,21.49,0,0,0-14.88-5.31H823.68a15.16,15.16,0,0,1-7.91-1.87q-3.12-1.87-3.12-3.75Q812.65,545.42,814.94,545.42Zm65.77-17.48q0-37-52.25-40h-5.41q-20.19,0-32,12.91T779.34,537.3q0,23.52,11.76,36.43t32,12.91h36q7.49,0,12.07-4.16a15.08,15.08,0,0,0,0-21.65q-4.58-4.16-12.07-4.16H823.68a18.58,18.58,0,0,1-12.7-4.37,18.85,18.85,0,0,1-6.24-11H867.6Q880.71,541.26,880.71,527.93Zm-39.13,3.33a9.36,9.36,0,0,1-6,.83l-2.91-.42q-7.91-1.45-12.7,2.29a20.86,20.86,0,0,0,.21-2.91,17.39,17.39,0,0,0-3.33-9.58l-1.67-2.5a10.24,10.24,0,0,1-1.67-5.83,13,13,0,0,1,3.33-8.53,9.86,9.86,0,0,1,7.7-4,8.73,8.73,0,0,1,4.58,1.25,9,9,0,0,1,4,7.91,17.74,17.74,0,0,1-.83,5.2q4-4,8.53-4a7.89,7.89,0,0,1,5.93,2.5,8.42,8.42,0,0,1,2.39,6Q849.07,527.73,841.58,531.26Z" transform="translate(-103.64 -416.78)"/><path class="cls-1" d="M955,474.23q21.23,0,35,12.91,14.36,13.53,14.36,35.8v47a25.41,25.41,0,0,1-6.56,17.8A21.68,21.68,0,0,1,981,595q-10.41,0-16.86-7.18T957.72,570V528.14q0-12.28-11.24-12.28-10.83,0-10.82,12.28V570a25.41,25.41,0,0,1-6.56,17.8A21.68,21.68,0,0,1,912.35,595q-10.41,0-16.86-7.18T889,570V490.05q0-10.62,6.45-17.8t16.86-7.18q15.61,0,20.61,13.32Q942.11,474.23,955,474.23Zm0,4.16q-13.53,0-22.27,4.79-2.29,1.46-2.91-1.25-3.54-12.69-17.48-12.7a17.7,17.7,0,0,0-13.84,5.93,21.49,21.49,0,0,0-5.31,14.88V570q0,9,5.31,14.88a19,19,0,0,0,27.58,0A21.24,21.24,0,0,0,931.5,570V528.14q0-16.44,15-16.44,15.4,0,15.4,16.44V570q0,9,5.31,14.88a19,19,0,0,0,27.58,0,21.25,21.25,0,0,0,5.41-14.88v-47q0-20.4-12.8-32.47T955,478.4ZM996,570v-47q0-18.73-11.55-29.56T955,482.56q-20.19,0-28.93,12.28V484.43q-1.67-11-13.74-11A14,14,0,0,0,901.52,478q-4.17,4.58-4.16,12.07V570q0,7.49,4.16,12.07a15,15,0,0,0,21.54,0q4.26-4.58,4.27-12.07V528.14q0-8.95,5.1-14.78t14-5.83q8.53,0,13.74,5,5.82,5.62,5.83,15.61V570q0,7.49,4.16,12.07a15,15,0,0,0,21.54,0Q996,577.48,996,570Z" transform="translate(-103.64 -416.78)"/><path class="cls-1" d="M1080.74,537.93l20.61,18.32q8.74,7.7,8.74,18.11a21.86,21.86,0,0,1-5.62,14.78,19.75,19.75,0,0,1-15.4,7.08q-9.16,0-21-9.78-5.83-4.79-17.07-16.86V570a25.41,25.41,0,0,1-6.56,17.8,21.68,21.68,0,0,1-16.76,7.18q-10.41,0-16.86-7.18t-6.45-17.8V441.76q0-10.62,6.45-17.8t16.86-7.18a21.37,21.37,0,0,1,16.65,7.18,26.48,26.48,0,0,1,6.66,17.8l.21,62.65,22.06-27.06q9.78-12.28,20.82-12.28a22.39,22.39,0,0,1,22.48,22.48,22.69,22.69,0,0,1-5.83,15.4Zm-4.37-1,31.22-36.63a19.06,19.06,0,0,0,4.79-12.7,17.53,17.53,0,0,0-5.41-13,17.8,17.8,0,0,0-12.91-5.31q-9,0-17.69,10.62l-25.6,31.64a2.38,2.38,0,0,1-1.87,1c-1.25,0-1.87-.76-1.87-2.29l-.21-68.48a22.32,22.32,0,0,0-5.52-14.88,17.47,17.47,0,0,0-13.63-5.93,17.7,17.7,0,0,0-13.84,5.93,21.5,21.5,0,0,0-5.31,14.88V570a21.49,21.49,0,0,0,5.31,14.88,19,19,0,0,0,27.58,0,21.24,21.24,0,0,0,5.41-14.88v-5.62a2.44,2.44,0,0,1,1-2.29,2.38,2.38,0,0,1,2.5.83l17.48,17.9Q1080.32,592,1089.06,592a15.32,15.32,0,0,0,12.07-5.52,18.15,18.15,0,0,0,4.79-12.18q0-8.53-7.29-15l-22.06-19.57A1.92,1.92,0,0,1,1076.37,536.88Zm31.85-49.33a13.5,13.5,0,0,0-4.19-10.1A14,14,0,0,0,1094,473.4q-7.12,0-14.45,9.16l-36.87,45.17v-86q-.21-7.49-4.37-12.07a13.72,13.72,0,0,0-10.62-4.58,14,14,0,0,0-10.82,4.58q-4.17,4.58-4.16,12.07V570q0,7.49,4.16,12.07a15,15,0,0,0,21.54,0q4.26-4.58,4.27-12.07v-20.4l32.89,31.85q6.66,6.45,13.53,6.45a11.54,11.54,0,0,0,9.05-4.16,13.86,13.86,0,0,0,3.64-9.37q0-6.66-5.83-11.87l-26.64-23.73,35.18-41.21A14.92,14.92,0,0,0,1108.21,487.55Z" transform="translate(-103.64 -416.78)"/><path class="cls-1" d="M1178.56,525v24.35a4.87,4.87,0,0,0,.31,2.29c.21.28.66.42,1.35.42q20.61,0,20.61,21,0,12.49-11,18.11-7.29,3.75-18.11,3.75Q1154,595,1143,583.51t-11-31V525q-9-.83-14.36-6.66t-5.41-14.78a21.23,21.23,0,0,1,19.36-21.44q0-2.29-.42-10.09t-.42-12.59q0-40,24.56-40a21.68,21.68,0,0,1,16.76,7.18,25.41,25.41,0,0,1,6.56,17.8v37.67h.21a24.24,24.24,0,0,1,15.19,4.79q7.49,5.62,7.49,16.65,0,10.83-7.49,16.65a24.22,24.22,0,0,1-15.19,4.79Zm-2.08-4.16h2.29a20.64,20.64,0,0,0,13-4.27q5.51-4.26,5.52-13t-6-13.32q-4.79-4-12.49-4h-2.29a1.84,1.84,0,0,1-2.08-2.08V444.47a21.25,21.25,0,0,0-5.41-14.88,19,19,0,0,0-27.58,0,21.49,21.49,0,0,0-5.31,14.88l-.42,39.76q-.21,2.08-2.08,2.08a16.6,16.6,0,0,0-12.38,5,16.87,16.87,0,0,0-4.89,12.28q0,7.7,4.89,12.49t12.8,4.79a1.84,1.84,0,0,1,2.08,2.08V552.5q0,17.9,9.78,28.1t25.81,10.2q25,0,25-17.69,0-16.86-16.44-16.86-5.83,0-5.83-6.87V522.94A1.84,1.84,0,0,1,1176.48,520.86Zm16.65-17.28q0-13.11-14.36-13.11h-8.53v-46q0-7.49-4.27-12.07a15,15,0,0,0-21.54,0q-4.17,4.58-4.16,12.07v46h-6.66a12.8,12.8,0,0,0-13.11,13.11q0,13.11,13.11,13.11h6.66v35.8q0,16.23,8.64,25.19t22.79,9q20.81,0,20.81-13.53,0-12.69-12.28-12.7-5,0-6.87-1.46-3.12-2.29-3.12-9.58V516.69h8.53Q1193.13,516.69,1193.13,503.58Z" transform="translate(-103.64 -416.78)"/><path class="cls-1" d="M1280.76,595q-11.24,0-17.9-7.18t-6.66-18.21V454.67q0-11,6.87-17.8a23.36,23.36,0,0,1,17.07-6.76q10.41,0,17.17,6.76t6.76,17.8v94.92h10q11,0,17.48,7.08a22.19,22.19,0,0,1,5.62,15.4,22.47,22.47,0,0,1-5.83,15.61q-6.45,7.28-17.28,7.29Zm0-4.16h33.3q8.95,0,14.36-5.83a18.83,18.83,0,0,0,4.79-12.91,18.38,18.38,0,0,0-5-12.91q-5-5.41-14.15-5.41H1302a1.84,1.84,0,0,1-2.08-2.08v-97q0-9.37-5.52-14.88t-14.26-5.52a19.38,19.38,0,0,0-14.15,5.52q-5.62,5.52-5.62,14.88v114.9q0,9.58,5.52,15.4T1280.76,590.79Zm48.29-17.9a14.86,14.86,0,0,0-3.33-10.2q-4.17-4.79-11.66-4.79h-18.32V454.67q0-7.7-4.37-12a16.94,16.94,0,0,0-22.48,0q-4.37,4.27-4.37,12v114.9q0,7.91,4.37,12.49t11.86,4.58h33.3a14.29,14.29,0,0,0,10.72-4.16A14.14,14.14,0,0,0,1329.05,572.89Z" transform="translate(-103.64 -416.78)"/><path class="cls-1" d="M1338.21,570V519.19a27.46,27.46,0,0,1,2.5-11.24,18.15,18.15,0,0,1-8-8.53,26.76,26.76,0,0,1-3-12.07,22.94,22.94,0,0,1,5-14.78,17.76,17.76,0,0,1,14.57-7.08,19,19,0,0,1,12.28,4.37,16.47,16.47,0,0,1,11.86-4.37,18.16,18.16,0,0,1,14.78,6.87,23.24,23.24,0,0,1,5,15q0,13.32-11.24,20.19a25.89,25.89,0,0,1,2.91,11.66V570a25.41,25.41,0,0,1-6.56,17.8,21.68,21.68,0,0,1-16.76,7.18q-10.41,0-16.86-7.18T1338.21,570Zm4.16,0q0,9,5.31,14.88a19,19,0,0,0,27.58,0,21.24,21.24,0,0,0,5.41-14.88V519.19a21.32,21.32,0,0,0-3.7-11.45,1.9,1.9,0,0,1-.46-1q0-1.25,3.23-3.12a25.29,25.29,0,0,0,6-5.2,18.07,18.07,0,0,0,3.23-11,19.08,19.08,0,0,0-4.27-12.49,13.94,13.94,0,0,0-11.34-5.2,13.49,13.49,0,0,0-8,2.6q-3.64,2.6-4.06,2.6a1.8,1.8,0,0,1-1.25-.62,14.37,14.37,0,0,0-10.82-4.58,13.72,13.72,0,0,0-11.14,5.2,19.07,19.07,0,0,0-4.27,12.49,21.54,21.54,0,0,0,2.71,10.41q3.12,5.62,7.7,7.29,2.29.83,1.25,2.91a23.79,23.79,0,0,0-3.12,11.24Zm42.46-82.63a14.57,14.57,0,0,0-3.23-9.68,10.26,10.26,0,0,0-8.22-3.85q-9,0-11.86,11.66h-.21q-2.5-11.65-12.07-11.66a10,10,0,0,0-8.12,3.85,14.87,14.87,0,0,0-3.12,9.68,15.36,15.36,0,0,0,2.39,8.64,13.24,13.24,0,0,0,5.72,5.1l3.54,1.46q9.16,4,11.86,11.24,2.5-7.28,11.66-11.24l3.33-1.46Q1384.83,497.55,1384.83,487.35ZM1376.51,570V519.19a17.36,17.36,0,0,0-3.33-10.82q-3.33,2.29-6.45,4.58-4.17,2.92-5.2,6.45a14,14,0,0,0-5.2-6.45l-6.66-4.58a18.15,18.15,0,0,0-3.12,10.82V570q0,7.49,4.16,12.07a15,15,0,0,0,21.54,0Q1376.51,577.48,1376.51,570Z" transform="translate(-103.64 -416.78)"/><path class="cls-1" d="M1502,571.65q0,10.41-7.18,16.86T1477,595h-36q-23.94,0-38-15.51t-14-42.15q0-26.64,14-42.15t38-15.51h9.57q24.35,0,40.17,12.91Q1507,506.08,1507,527.93q0,21.65-21.44,21.65Q1502,554.58,1502,571.65Zm-69.11-26.23h52.66q17.27,0,17.28-17.48,0-20-14.67-32.05t-37.57-12.07H1441q-22.06,0-35,14.26t-12.91,39.24q0,25,12.91,39.24t35,14.26h36a21.49,21.49,0,0,0,14.88-5.31,19.11,19.11,0,0,0,0-27.68A21.49,21.49,0,0,0,1477,552.5h-35.39a15.16,15.16,0,0,1-7.91-1.87q-3.12-1.87-3.12-3.75C1430.63,545.91,1431.39,545.42,1432.92,545.42Zm65.77-17.48q0-37-52.24-40H1441q-20.19,0-32,12.91t-11.76,36.43q0,23.52,11.76,36.43t32,12.91h36q7.49,0,12.07-4.16a15.08,15.08,0,0,0,0-21.65q-4.58-4.16-12.07-4.16h-35.39a18.58,18.58,0,0,1-12.7-4.37,18.85,18.85,0,0,1-6.24-11h62.86Q1498.69,541.26,1498.69,527.93Zm-39.13,3.33a9.37,9.37,0,0,1-6,.83l-2.91-.42q-7.91-1.45-12.7,2.29a20.86,20.86,0,0,0,.21-2.91,17.39,17.39,0,0,0-3.33-9.58l-1.67-2.5a10.24,10.24,0,0,1-1.67-5.83,13,13,0,0,1,3.33-8.53,9.87,9.87,0,0,1,7.7-4,8.73,8.73,0,0,1,4.58,1.25,9,9,0,0,1,4,7.91,17.74,17.74,0,0,1-.83,5.2q4-4,8.53-4a7.89,7.89,0,0,1,5.93,2.5,8.42,8.42,0,0,1,2.39,6Q1467.05,527.73,1459.56,531.26Z" transform="translate(-103.64 -416.78)"/><path class="cls-1" d="M1593.6,587.88q-5.42,2.08-21.65,9-1.67.62-23.1-9.78a22,22,0,0,1-18.53,9.16,21.68,21.68,0,0,1-16.76-7.18,25.41,25.41,0,0,1-6.56-17.8V443a25.41,25.41,0,0,1,6.56-17.8,21.68,21.68,0,0,1,16.76-7.18q10.41,0,16.86,7.18t6.45,17.8v36.43q2.7-.21,5.41-.21,4.16,0,12.07,3.33,7.91-3.33,12.07-3.33,24.35,0,38.72,18.53A54.06,54.06,0,0,1,1634,532.31q0,29.35-32.05,50.16Q1600.26,585,1593.6,587.88Zm-1.46-4q5.41-2.29,6.45-4a2.33,2.33,0,0,1,.83-.83q30.39-19.36,30.39-46.83a50.19,50.19,0,0,0-11.24-32.05q-13.11-16.86-35.39-16.86a26.24,26.24,0,0,0-7.18,1.77q-5.1,1.77-5.72,1.56-8.12-3.33-11.24-3.33a38.38,38.38,0,0,0-7.08.62q-2.5.21-2.5-2.08V443q0-9.16-5.31-15a19.23,19.23,0,0,0-27.58,0q-5.42,5.83-5.41,15V571.23a21.23,21.23,0,0,0,5.41,14.88,17.78,17.78,0,0,0,13.74,5.93,17.34,17.34,0,0,0,12.49-4.79q5-4.79,5.41-4.79-.83,0,22.9,10.2Q1579.45,589.13,1592.15,583.93Zm33.51-51.62a46.93,46.93,0,0,0-10.2-29.56q-12.07-15.19-32.26-15.19A16.77,16.77,0,0,0,1577,489a51.87,51.87,0,0,1-5.83,2.29,46.71,46.71,0,0,1-5.62-2.29,19.73,19.73,0,0,0-6.45-1.46,44.55,44.55,0,0,0-13.74,2.08V443q0-7.49-4.16-12.07a15,15,0,0,0-21.54,0q-4.27,4.58-4.27,12.07V571.23a17.08,17.08,0,0,0,4.27,12,13.89,13.89,0,0,0,10.72,4.68q12.07,0,14.57-12.28,3.54,2.71,26.23,12.49,24.77-10.62,26-12.49l1.46-.83Q1625.66,557.49,1625.66,532.31Zm-29.14,0q0,10.2-8.12,13.74l-3.54,1.46q-9.16,4-11.66,11.24-2.71-7.28-11.87-11.24L1558,546a12.41,12.41,0,0,1-5.83-5.1,15.87,15.87,0,0,1-2.29-8.64,14.88,14.88,0,0,1,3.12-9.68,10,10,0,0,1,8.12-3.85q9.37,0,12.07,11.66,2.91-11.65,12.07-11.66a10,10,0,0,1,8.12,3.85A14.88,14.88,0,0,1,1596.52,532.31Z" transform="translate(-103.64 -416.78)"/><path class="cls-1" d="M1747,571.65q0,10.41-7.18,16.86T1722,595h-36q-23.94,0-38-15.51t-14-42.15q0-26.64,14-42.15t38-15.51h9.57q24.35,0,40.17,12.91Q1752,506.08,1752,527.93q0,21.65-21.44,21.65Q1747,554.58,1747,571.65Zm-69.11-26.23h52.66q17.27,0,17.28-17.48,0-20-14.67-32.05t-37.57-12.07H1686q-22.06,0-35,14.26t-12.91,39.24q0,25,12.91,39.24t35,14.26h36a21.49,21.49,0,0,0,14.88-5.31,19.11,19.11,0,0,0,0-27.68A21.49,21.49,0,0,0,1722,552.5h-35.39a15.16,15.16,0,0,1-7.91-1.87q-3.12-1.87-3.12-3.75C1675.61,545.91,1676.37,545.42,1677.9,545.42Zm65.77-17.48q0-37-52.24-40H1686q-20.19,0-32,12.91t-11.76,36.43q0,23.52,11.76,36.43t32,12.91h36q7.49,0,12.07-4.16a15.08,15.08,0,0,0,0-21.65q-4.58-4.16-12.07-4.16h-35.39a18.58,18.58,0,0,1-12.7-4.37,18.85,18.85,0,0,1-6.24-11h62.86Q1743.67,541.26,1743.67,527.93Zm-39.13,3.33a9.37,9.37,0,0,1-6,.83l-2.91-.42q-7.91-1.45-12.7,2.29a20.86,20.86,0,0,0,.21-2.91,17.39,17.39,0,0,0-3.33-9.58l-1.67-2.5a10.24,10.24,0,0,1-1.67-5.83,13,13,0,0,1,3.33-8.53,9.87,9.87,0,0,1,7.7-4,8.73,8.73,0,0,1,4.58,1.25,9,9,0,0,1,4,7.91,17.74,17.74,0,0,1-.83,5.2q4-4,8.53-4a7.89,7.89,0,0,1,5.93,2.5,8.42,8.42,0,0,1,2.39,6Q1712,527.73,1704.54,531.26Z" transform="translate(-103.64 -416.78)"/><text class="cls-2" transform="translate(0 279.59)">Eine deutsche Gilde vom Realm Blackmoo<tspan class="cls-3" x="1291.65" y="0">r</tspan><tspan class="cls-4" x="1313.02" y="0">e EU</tspan></text></svg>