<svg xmlns="http://www.w3.org/2000/svg" viewBox="403 29 28 28"><defs><style>.a{fill:none;}.b{fill:#fff;}</style></defs><g transform="translate(44 -3)"><path class="a" d="M0,0H28V28H0Z" transform="translate(359 32)"/><path class="b" d="M18.5,12A3.5,3.5,0,1,0,15,8.5,3.485,3.485,0,0,0,18.5,12ZM9.167,12a3.5,3.5,0,1,0-3.5-3.5A3.485,3.485,0,0,0,9.167,12Zm0,2.333C6.448,14.333,1,15.7,1,18.417v2.917H17.333V18.417C17.333,15.7,11.885,14.333,9.167,14.333Zm9.333,0c-.338,0-.723.023-1.132.058a4.923,4.923,0,0,1,2.3,4.025v2.917h7V18.417C26.667,15.7,21.218,14.333,18.5,14.333Z" transform="translate(359.167 32.833)"/></g></svg>